<svg xmlns="http://www.w3.org/2000/svg" xmlns:svg="http://www.w3.org/2000/svg" id="svg1335" width="73" height="60" version="1.1" viewBox="13 18 73 60"><metadata id="metadata1339"/><defs id="defs1330"><linearGradient id="grad_1" x1="13.4" x2="133.636" y1="68.018" y2="68.018" gradientUnits="userSpaceOnUse"><stop id="stop1320" offset="0" stop-color="#6D6E71"/><stop id="stop1322" offset="1" stop-color="#414042"/></linearGradient><linearGradient id="grad_2" x1="73.518" x2="73.518" y1="21.683" y2="114.353" gradientUnits="userSpaceOnUse"><stop id="stop1325" offset="0" stop-color="#58595B"/><stop id="stop1327" offset="1" stop-color="#000"/></linearGradient></defs><g id="ID0.597694851923734" transform="matrix(0.59873694,0,0,0.59873694,5.9770561,7.7376214)"><path id="ID0.048198970034718513" d="m 129.356,22.913 c -2.741,-2.728 -6.382,-4.229 -10.249,-4.229 -3.899,0 -7.561,1.522 -10.31,4.287 L 50.016,82.072 38.389,70.035 c -2.766,-2.862 -6.479,-4.439 -10.46,-4.439 -3.787,0 -7.373,1.449 -10.097,4.08 -5.767,5.571 -5.927,14.793 -0.358,20.559 l 21.857,22.629 c 0.747,0.773 1.604,1.475 2.509,2.062 0.106,0.07 0.214,0.137 0.322,0.201 l 0.138,0.084 c 0.216,0.131 0.432,0.262 0.627,0.365 2.127,1.162 4.538,1.775 6.972,1.775 10e-4,0 10e-4,0 10e-4,0 3.895,0 7.551,-1.52 10.296,-4.281 l 69.217,-69.596 c 5.652,-5.683 5.627,-14.908 -0.057,-20.561 z" style="fill:url(#grad_1)"/><path id="ID0.9675217140465975" d="m 127.24,25.04 c -4.516,-4.493 -11.821,-4.473 -16.315,0.046 L 49.985,86.358 36.23,72.119 C 31.802,67.535 24.498,67.408 19.916,71.834 15.331,76.262 15.205,83.567 19.632,88.151 l 21.856,22.627 c 0.621,0.643 1.303,1.189 2.021,1.656 0.095,0.062 0.192,0.117 0.289,0.178 0.188,0.113 0.373,0.229 0.565,0.332 4.39,2.396 10.001,1.736 13.704,-1.988 L 127.284,41.36 c 4.495,-4.52 4.476,-11.825 -0.044,-16.32 z" style="fill:url(#grad_2)"/></g></svg>