<svg xmlns="http://www.w3.org/2000/svg" xmlns:svg="http://www.w3.org/2000/svg" id="svg5169" width="56.254" height="78.461" version="1.1" viewBox="-1 -1 56.254 78.461"><metadata id="metadata5175"/><g id="ID0.9213183801621199" transform="matrix(0.77378094,0,0,0.77378094,-158.5418,-108.40079)"><path id="ID0.7822747188620269" d="M 208.8,218.95 273,210 v 28 l -52,1.15 z" transform="rotate(-5.1427645,208.99953,227.48626)" style="fill:#ffd63d;stroke:#ffd63d;stroke-width:2;stroke-linecap:round"/><g id="ID0.4628882557153702" transform="translate(203,138)"><g id="ID0.021997046656906605"><path id="ID0.15504977852106094" d="m 250.3,220 c 0.4,1 0.6,2.1 0.6,3.2 0,5.3 -4.9,9.7 -10.9,9.7 -6,0 -10.9,-4.4 -10.9,-9.7 0,-0.5 0,-1 0.1,-1.5 z" transform="translate(-203,-138)" style="fill:#630"/><path id="ID0.10469782678410411" d="m 247.6,223.1 c 0,3.7 -3.4,6.8 -7.6,6.8 -4.2,0 -7.6,-3 -7.6,-6.8 0,-0.6 0.1,-1.2 0.2,-1.8 l 14.2,-1.1 c 0.6,0.9 0.8,1.9 0.8,2.9 z" transform="translate(-203,-138)" style="fill:#a55301"/></g><g id="ID0.023421797901391983"><path id="ID0.1815381827764213" d="m 267,159.3 -8.4,-4.9 -7,0.4 c 1.2,-1.7 2,-3.8 2,-6 0,-5.5 -4.4,-10 -10,-10 -5.5,0 -10,4.4 -10,10 0,2.7 1,5.1 2.8,6.9 l -11.2,0.6 -21.6,65.5 16,18.4 56.7,-5.1 z m -23.5,-14 c 1.9,0 3.5,1.5 3.5,3.5 0,1.9 -1.5,3.5 -3.5,3.5 -1.9,0 -3.5,-1.5 -3.5,-3.5 0,-2 1.6,-3.5 3.5,-3.5 z m -32.2,80 18.8,-1.5 21.1,-1.7 7.7,-0.6 11,11.7 -47.8,4.6 z" transform="translate(-203,-138)" style="fill:#630"/></g></g></g></svg>