<svg xmlns="http://www.w3.org/2000/svg" xmlns:svg="http://www.w3.org/2000/svg" id="svg6639" width="131" height="97" version="1.1" viewBox="-1 -1 131 97"><metadata id="metadata6645"/><g id="ID0.4236689596436918"><path id="ID0.6745034395717084" d="m 278.5,18 c 36.832,0 70.207,17.873 94.374,46.746 C 397.041,93.62 412,133.495 412,177.5 412,221.505 397.041,261.38 372.874,290.254 348.707,319.127 315.332,337 278.5,337 241.668,337 208.293,319.127 184.126,290.254 159.959,261.38 145,221.505 145,177.5 145,133.495 159.959,93.62 184.126,64.746 208.293,35.873 241.668,18 278.5,18 Z" transform="matrix(0.28261745,0,0,0.28534636,-38.45,-1.95)" style="fill:#c00;stroke:#000;stroke-width:7"/><path id="ID0.24167582904919982" d="m 96,273 h 74" transform="matrix(0.28226486,0.01411324,-0.01411324,0.28226486,12.05,15.45)" style="fill:none;stroke:#666;stroke-width:11;stroke-linecap:round"/><path id="path6624" d="m 278.5,18 c 36.832,0 70.207,17.873 94.374,46.746 C 397.041,93.62 412,133.495 412,177.5 412,221.505 397.041,261.38 372.874,290.254 348.707,319.127 315.332,337 278.5,337 241.668,337 208.293,319.127 184.126,290.254 159.959,261.38 145,221.505 145,177.5 145,133.495 159.959,93.62 184.126,64.746 208.293,35.873 241.668,18 278.5,18 Z" transform="matrix(0.28680232,0,0,0.28680232,-20.85,-1.95)" style="fill:#fff;stroke:#666;stroke-width:7"/><path id="ID0.5951332119293511" d="m 86,79 h 89" transform="matrix(0.22230689,0,0,0.28261745,-10.5,-1.75)" style="fill:none;stroke:#666;stroke-width:11;stroke-linecap:round"/><path id="ID0.35596586437895894" d="m 154,21 h 86" transform="matrix(0.25714603,-0.01906803,0.02089942,0.28184363,-8.5,1.1)" style="fill:none;stroke:#666;stroke-width:11;stroke-linecap:round"/><path id="ID0.5682200188748538" d="m 66,177 h 75" transform="matrix(0.24811183,0,0,0.28261745,-14.45,-1.2)" style="fill:none;stroke:#666;stroke-width:11;stroke-linecap:round"/><path id="path6629" d="m 96,273 h 74" transform="matrix(0.26623386,0,0,0.28261745,-17.9,-1.75)" style="fill:none;stroke:#666;stroke-width:11;stroke-linecap:round"/><path id="path6631" d="m 278.5,18 c 36.832,0 70.207,17.873 94.374,46.746 C 397.041,93.62 412,133.495 412,177.5 412,221.505 397.041,261.38 372.874,290.254 348.707,319.127 315.332,337 278.5,337 241.668,337 208.293,319.127 184.126,290.254 159.959,261.38 145,221.505 145,177.5 145,133.495 159.959,93.62 184.126,64.746 208.293,35.873 241.668,18 278.5,18 Z" transform="matrix(0.28680232,0,0,0.28680232,-19.1,-2.55)" style="fill:#ffc;stroke:#000;stroke-width:7"/></g><path id="ID0.6260078968480229" d="M 107.42393,32.836046 122.12577,21.229332" style="fill:none;stroke:#000;stroke-width:1.54756188;stroke-linecap:round"/><path id="path6635" d="m 109.91489,44.415063 18.73076,-0.135731" style="fill:none;stroke:#000;stroke-width:1.54756188;stroke-linecap:round"/><path id="path6637" d="m 107.82393,55.113954 14.70184,11.606714" style="fill:none;stroke:#000;stroke-width:1.54756188;stroke-linecap:round"/></svg>