<svg xmlns="http://www.w3.org/2000/svg" xmlns:svg="http://www.w3.org/2000/svg" id="svg6614" width="131" height="97" version="1.1" viewBox="-1 -1 131 97"><metadata id="metadata6620"/><g id="ID0.4236689596436918" transform="matrix(0.77378094,0,0,0.77378094,-0.67638277,-0.33406625)"><path id="ID0.6745034395717084" d="m 278.5,18 c 36.832,0 70.207,17.873 94.374,46.746 C 397.041,93.62 412,133.495 412,177.5 412,221.505 397.041,261.38 372.874,290.254 348.707,319.127 315.332,337 278.5,337 241.668,337 208.293,319.127 184.126,290.254 159.959,261.38 145,221.505 145,177.5 145,133.495 159.959,93.62 184.126,64.746 208.293,35.873 241.668,18 278.5,18 Z" transform="matrix(0.36524221,0,0,0.3687689,-49.55,-2.75)" style="fill:#c00;stroke:#000;stroke-width:7"/><path id="ID0.24167582904919982" d="m 96,273 h 74" transform="matrix(0.36478651,0.01823932,-0.01823932,0.36478651,15.8,19.8)" style="fill:none;stroke:#666;stroke-width:11;stroke-linecap:round"/><path id="path6604" d="m 278.5,18 c 36.832,0 70.207,17.873 94.374,46.746 C 397.041,93.62 412,133.495 412,177.5 412,221.505 397.041,261.38 372.874,290.254 348.707,319.127 315.332,337 278.5,337 241.668,337 208.293,319.127 184.126,290.254 159.959,261.38 145,221.505 145,177.5 145,133.495 159.959,93.62 184.126,64.746 208.293,35.873 241.668,18 278.5,18 Z" transform="matrix(0.37065053,0,0,0.37065053,-26.8,-2.75)" style="fill:#fff;stroke:#666;stroke-width:7"/><path id="ID0.5951332119293511" d="m 86,79 h 89" transform="matrix(0.28729951,0,0,0.36524221,-13.4,-2.5)" style="fill:none;stroke:#666;stroke-width:11;stroke-linecap:round"/><path id="ID0.35596586437895894" d="m 154,21 h 86" transform="matrix(0.33232406,-0.02464267,0.02700948,0.36424217,-10.8,1.25)" style="fill:none;stroke:#666;stroke-width:11;stroke-linecap:round"/><path id="ID0.5682200188748538" d="m 66,177 h 75" transform="matrix(0.32064867,0,0,0.36524221,-18.5,-1.75)" style="fill:none;stroke:#666;stroke-width:11;stroke-linecap:round"/><path id="path6609" d="m 96,273 h 74" transform="matrix(0.34406877,0,0,0.36524221,-23,-2.5)" style="fill:none;stroke:#666;stroke-width:11;stroke-linecap:round"/><path id="path6611" d="m 278.5,18 c 36.832,0 70.207,17.873 94.374,46.746 C 397.041,93.62 412,133.495 412,177.5 412,221.505 397.041,261.38 372.874,290.254 348.707,319.127 315.332,337 278.5,337 241.668,337 208.293,319.127 184.126,290.254 159.959,261.38 145,221.505 145,177.5 145,133.495 159.959,93.62 184.126,64.746 208.293,35.873 241.668,18 278.5,18 Z" transform="matrix(0.37065053,0,0,0.37065053,-24.55,-3.5)" style="fill:#ffc;stroke:#000;stroke-width:7"/></g></svg>