<svg xmlns="http://www.w3.org/2000/svg" xmlns:svg="http://www.w3.org/2000/svg" id="partyhat3" width="44.553" height="64.422" x="0" y="0" enable-background="new 0 0 150 150" version="1.1" viewBox="0 0 44.553 64.422" xml:space="preserve"><metadata id="metadata7300"/><g id="g7293"><g id="Hat"><polygon id="Hat_Fill" points="42.256 56.704 18.881 15.8 3.145 58.18" style="fill:#00a100"/><path id="Spot" d="m 15.55,41.057 c 3.571,0 6.465,-2.895 6.465,-6.465 0,-3.57 -2.895,-6.465 -6.465,-6.465 -0.443,0 -0.876,0.045 -1.294,0.13 l -3.818,10.282 c 1.182,1.529 3.029,2.518 5.112,2.518 z" style="fill:#8100ff"/><path id="Spot_1_" d="m 24.636,43.241 c 0,2.846 2.307,5.154 5.154,5.154 2.652,0 4.811,-2.011 5.097,-4.586 l -3.015,-5.275 c -0.638,-0.283 -1.34,-0.446 -2.082,-0.446 -2.847,-10e-4 -5.154,2.307 -5.154,5.153 z" style="fill:#2ec7ff"/><circle id="Spot_2_" cx="18.433" cy="48.309" r="4.106" style="fill:#ff0"/><path id="Spot_3_" d="m 7.95,50.667 c -0.755,0 -1.478,0.134 -2.153,0.369 l -2.652,7.144 11.33,-0.428 c 0.014,-0.176 0.027,-0.354 0.027,-0.534 0,-3.617 -2.934,-6.551 -6.552,-6.551 z" style="fill:#ffb903"/><path id="Spot_4_" d="m 36.691,55.559 c 0,-3.088 -2.503,-5.591 -5.591,-5.591 -3.088,0 -5.591,2.503 -5.591,5.591 0,0.618 0.104,1.21 0.289,1.766 l 10.719,-0.404 c 0.109,-0.437 0.174,-0.891 0.174,-1.362 z" style="fill:#dc5991"/><path id="Spot_5_" d="m 18.695,23.41 c 0,2.315 1.877,4.193 4.193,4.193 0.863,0 1.665,-0.262 2.332,-0.709 l -4.143,-7.25 c -1.405,0.677 -2.382,2.102 -2.382,3.766 z" style="fill:#ff6b00"/></g><polygon id="PomPom" points="22.368 13.413 27.081 21.838 20.354 15.985 21.021 27.924 17.532 14.756 6.842 16.613 14.393 11.59 4.044 5.523 16.559 8.115 15.286 0 19.406 8.263 28.377 4.92 23.257 10.539 28.078 14.079" style="fill:#2ec7ff"/><polygon id="Fringe" points="6.639 57.083 11.356 54.113 13.802 56.559 17.646 53.764 20.268 57.258 24.897 51.58 29.003 55.859 33.021 52.89 38.264 55.686 42.981 49.57 44.553 60.229 37.564 58.83 33.546 62.5 28.653 59.18 23.587 63.198 17.472 59.879 12.929 64.422 10.657 60.402 6.29 63.023 3.494 60.053 0 61.276 2.795 52.89" style="fill:#2ec7ff"/></g></svg>