<svg xmlns="http://www.w3.org/2000/svg" xmlns:xlink="http://www.w3.org/1999/xlink" id="Layer_1" width="145.561" height="143.07" x="0" y="0" enable-background="new -4.708 -4.5 145.561 143.07" version="1.1" viewBox="-4.708 -4.5 145.561 143.07" xml:space="preserve"><g id="ID0.2657389142550528"><path id="ID0.2874125149101019" fill="#C4F3EF" stroke="#C4F3EF" stroke-linejoin="round" stroke-width="15" d="M37.8,3 C19.025,3,3.788,19.265,3.788,39.305c0,40.77,38.528,51.458,64.783,91.765c24.822-40.059,64.783-52.297,64.783-91.765 C133.354,19.265,118.115,3,99.342,3c-13.619,0-25.34,8.583-30.771,20.933C63.14,11.583,51.418,3,37.8,3z"/><path id="ID0.2874125149101019_1_" fill="#CFF" stroke="#CFF" stroke-linejoin="round" stroke-width="15" d="M34.8,4 C17.132,4,2.792,19.306,2.792,38.165c0,38.366,36.257,48.426,60.964,86.355c23.358-37.696,60.964-49.214,60.964-86.355 C124.721,19.306,110.381,4,92.713,4c-12.815,0-23.846,8.077-28.956,19.699C58.646,12.077,47.616,4,34.8,4z"/></g><text id="ID0.7224274449981749" fill="#F99" font-family="'Helvetica'" font-size="25.079" transform="matrix(1 0 0 1 19.708 55.4043)">LOVE IT</text></svg>