<svg xmlns="http://www.w3.org/2000/svg" xmlns:svg="http://www.w3.org/2000/svg" id="svg667" width="88" height="96" version="1.1"><metadata id="metadata673"/><g id="ID0.5701378411613405" transform="matrix(0.77378094,0,0,0.77378094,-12.934059,7.9867144)"><path id="ID0.7662904155440629" d="m 198.125,212.9 c 10.367,0 19.76,1.014 26.562,2.652 6.803,1.639 11.013,3.901 11.013,6.398 0,2.497 -4.21,4.759 -11.013,6.398 -6.802,1.638 -16.195,2.652 -26.562,2.652 -10.367,0 -19.76,-1.014 -26.562,-2.652 -6.803,-1.639 -11.013,-3.901 -11.013,-6.398 0,-2.497 4.21,-4.759 11.013,-6.398 6.802,-1.638 16.195,-2.652 26.562,-2.652 z" transform="matrix(0.92530656,-0.00396135,-0.00512801,1.6232984,-90.25,-262.85)" style="fill:#919191;stroke:#919191;stroke-width:2.95272493"/><path id="ID0.8972083395346999" d="m 219.625,162.15 c 18.147,0 34.591,3.538 46.498,9.254 11.907,5.716 18.23,12.558 19.277,22.321 1.414,13.251 -4.106,28.516 -13.85,38.075 -10.672,11.012 -26.684,18.113 -42.45,18.65 -18.334,0.622 -38.39,-4.468 -52.85,-15.55 -12.685,-9.38 -21.892,-25.799 -22.4,-41.175 -0.32,-9.814 7.37,-16.605 19.277,-22.321 11.907,-5.716 28.351,-9.254 46.498,-9.254 z" transform="matrix(0.82755679,0.33587992,-0.33587992,0.82755679,-43,-184.3)" style="fill:#a85b00;stroke:none;stroke-linecap:round"/><path id="ID0.10735392430797219" d="m 220.125,156.45 c 17.292,0 32.96,2.785 44.306,7.283 11.346,4.499 18.369,10.711 18.369,17.567 0,6.856 -7.023,13.068 -18.369,17.567 -11.346,4.498 -27.014,7.283 -44.306,7.283 -17.292,0 -32.96,-2.785 -44.306,-7.283 -11.346,-4.499 -18.369,-10.711 -18.369,-17.567 0,-6.856 7.023,-13.068 18.369,-17.567 11.346,-4.498 27.014,-7.283 44.306,-7.283 z" transform="matrix(0.82755679,0.33587992,-0.33587992,0.82755679,-45.05,-179.65)" style="fill:#ef9300;stroke:#eac28e;stroke-width:2.75322509;stroke-linecap:round"/><path id="ID0.4141157087869942" d="m 216,162.65 c 0,0 1.089,19.247 -1.05,28.5 -1.582,6.843 -9.85,18.65 -9.85,18.65" transform="matrix(0.82755679,0.33587992,-0.33587992,0.82755679,-42.9,-183.75)" style="fill:none;stroke:#eac28e;stroke-width:1.99512506;stroke-linecap:round"/><path id="ID0.011384283192455769" d="m 215.45,186.45 48.2,-17.05" transform="matrix(0.82755679,0.33587992,-0.33587992,0.82755679,-42.9,-183.75)" style="fill:none;stroke:#eac28e;stroke-width:1.99512506;stroke-linecap:round"/><path id="ID0.8657065210863948" d="m 255.35,206.15 c 0,0 -39.9,-18.65 -39.9,-18.65 L 159,180.8" transform="matrix(0.82755679,0.33587992,-0.33587992,0.82755679,-42.9,-183.75)" style="fill:none;stroke:#eac28e;stroke-width:1.99512506;stroke-linecap:round"/><path id="ID0.9600630304776132" d="m 213.4,187.5 -39.35,15.05" transform="matrix(0.82755679,0.33587992,-0.33587992,0.82755679,-42.9,-183.75)" style="fill:none;stroke:#eac28e;stroke-width:1.99512506;stroke-linecap:round"/><path id="ID0.13748089503496885" d="m 214.45,188.55 -31.1,-22.3" transform="matrix(0.82755679,0.33587992,-0.33587992,0.82755679,-42.9,-183.75)" style="fill:none;stroke:#eac28e;stroke-width:1.99512506;stroke-linecap:round"/><path id="ID0.14989860635250807" d="m 216,189.05 65.25,-1" transform="matrix(0.82755679,0.33587992,-0.33587992,0.82755679,-42.9,-183.75)" style="fill:none;stroke:#eac28e;stroke-width:1.99512506;stroke-linecap:round"/></g></svg>