<svg xmlns="http://www.w3.org/2000/svg" xmlns:svg="http://www.w3.org/2000/svg" id="svg18" width="83.032" height="112.357" version="1.1" viewBox="-1 -1 83.032 112.357"><metadata id="metadata24"/><g id="ID0.6455738404765725" transform="translate(-188.94749,-102.0576)"><path id="ID0.1406416855752468" d="m 49.1,89.45 91.05,1.9 -7.15,162.5 -68.25,-4.9 z" transform="matrix(0.71773392,0,0,0.60083216,153.5,60.25)" style="fill:#0cc;stroke:#000;stroke-width:2;stroke-linecap:round"/><path id="path3" d="m 56.5,88.35 55.2,-19.3 -27.55,161 L 40.2,248.1 56.55,90.25 Z" transform="matrix(0.29550409,0,0,0.61672992,237.5,59.4)" style="fill:#099;stroke:#000;stroke-width:2;stroke-linecap:round"/><g id="ID0.8624390144832432" transform="translate(187,101)"><path id="ID0.6190396044403315" d="m 282.5,235 c 1.517,0 2.892,0.616 3.888,1.612 0.996,0.996 1.612,2.371 1.612,3.888 0,1.517 -0.616,2.892 -1.612,3.888 -0.996,0.996 -2.371,1.612 -3.888,1.612 -1.517,0 -2.892,-0.616 -3.888,-1.612 -0.996,-0.996 -1.612,-2.371 -1.612,-3.888 0,-1.517 0.616,-2.892 1.612,-3.888 0.996,-0.996 2.371,-1.612 3.888,-1.612 z" transform="matrix(3.2619596,0,0,3.2619596,-884.3,-700.6)" style="fill:#666;stroke:#000;stroke-width:1"/><path id="path6" d="m 282.5,235 c 1.517,0 2.892,0.616 3.888,1.612 0.996,0.996 1.612,2.371 1.612,3.888 0,1.517 -0.616,2.892 -1.612,3.888 -0.996,0.996 -2.371,1.612 -3.888,1.612 -1.517,0 -2.892,-0.616 -3.888,-1.612 -0.996,-0.996 -1.612,-2.371 -1.612,-3.888 0,-1.517 0.616,-2.892 1.612,-3.888 0.996,-0.996 2.371,-1.612 3.888,-1.612 z" transform="matrix(1.4616326,0,0,1.4616326,-375.8,-267.95)" style="fill:#dddfea;stroke:#000;stroke-width:1"/></g><path id="path9" d="m 60.3,49.35 89.95,-0.05 -24.7,207.4 -96.4,-15.65 z" transform="matrix(0.6690582,0,0,0.06388629,169.7,98.35)" style="fill:#0ff;stroke:#000;stroke-width:2;stroke-linecap:round"/><g id="g15" transform="translate(187,101)"><path id="path11" d="m 282.5,235 c 1.517,0 2.892,0.616 3.888,1.612 0.996,0.996 1.612,2.371 1.612,3.888 0,1.517 -0.616,2.892 -1.612,3.888 -0.996,0.996 -2.371,1.612 -3.888,1.612 -1.517,0 -2.892,-0.616 -3.888,-1.612 -0.996,-0.996 -1.612,-2.371 -1.612,-3.888 0,-1.517 0.616,-2.892 1.612,-3.888 0.996,-0.996 2.371,-1.612 3.888,-1.612 z" transform="matrix(3.2619596,0,0,3.2619596,-885.4,-745)" style="fill:#666;stroke:#000;stroke-width:1"/><path id="path13" d="m 282.5,235 c 1.517,0 2.892,0.616 3.888,1.612 0.996,0.996 1.612,2.371 1.612,3.888 0,1.517 -0.616,2.892 -1.612,3.888 -0.996,0.996 -2.371,1.612 -3.888,1.612 -1.517,0 -2.892,-0.616 -3.888,-1.612 -0.996,-0.996 -1.612,-2.371 -1.612,-3.888 0,-1.517 0.616,-2.892 1.612,-3.888 0.996,-0.996 2.371,-1.612 3.888,-1.612 z" transform="matrix(1.4616326,0,0,1.4616326,-376.9,-312.35)" style="fill:#dddfea;stroke:#000;stroke-width:1"/></g></g></svg>